<svg id="Layer_2" data-name="Layer 2" xmlns="http://www.w3.org/2000/svg" viewBox="0 0 429.17 273.53"><defs><style>.cls-1{fill:none;stroke:#b8c0e0;stroke-miterlimit:10;stroke-width:5px;}.cls-2{fill:#b8c0e0;}</style></defs><path class="cls-1" d="M361.41,196.58a91.67,91.67,0,0,0-26,3.75,111.23,111.23,0,0,0-216,21.31,69.84,69.84,0,1,0,3.83,132.28,78.61,78.61,0,0,0,116.59,21.49A78.57,78.57,0,0,0,336,376.69a91.85,91.85,0,1,0,25.39-180.11Z" transform="translate(-26.59 -121.47)"/><path class="cls-2" d="M272.68,298s22.16-16.75,55.91-10.05L267,204.47S289.94,253.68,272.68,298Z" transform="translate(-26.59 -121.47)"/><path class="cls-2" d="M316.13,353.38c4-7.46,23.07-41.18,43.68-45.3,0,0-48.63-10.63-104.75-6V138.63h-4.64v18.54l-84.49,145.3c33.49,9.53,84.49-5.92,84.49-5.92v5.91A271.63,271.63,0,0,0,207.18,310c-73,19.32-84.64,9.27-84.64,9.27s-.34,25.66,32.48,34.28" transform="translate(-26.59 -121.47)"/><path class="cls-2" d="M155,353.56a157.12,157.12,0,0,0,30.88,4.06l15.1.14c8.53.18,17.56.2,26.65.12l13.53.05,28.07-.09c9.26,0,42.47,3.18,46.88-4.46" transform="translate(-26.59 -121.47)"/></svg>