<svg xmlns="http://www.w3.org/2000/svg" width="35" height="51" viewBox="0 0 35 51">
    <g id="Wind_arrow" data-name="Wind arrow" transform="translate(1 1)">
        <path id="Path_13308" data-name="Path 13308" d="M1341.768,2097.488h0L1327.5,2073l-14.277,24.488h0a15.971,15.971,0,0,0-2.223,8.179,16.5,16.5,0,0,0,33,0A15.9,15.9,0,0,0,1341.768,2097.488Z" transform="translate(-1311 -2073)" fill="#ed5448"/>
        <path id="Path_13309" data-name="Path 13309" d="M1313.223,2097.488a15.971,15.971,0,0,0-2.223,8.179A16.418,16.418,0,0,0,1327.5,2122v-49Z" transform="translate(-1311 -2073)" fill="#000064" opacity="0.15"/>
        <path id="Path_13311" data-name="Path 13311" d="M1341.768,2097.488h0L1327.5,2073l-14.277,24.488h0a15.971,15.971,0,0,0-2.223,8.179,16.5,16.5,0,0,0,33,0A15.9,15.9,0,0,0,1341.768,2097.488Z" transform="translate(-1311 -2073)" fill="none" stroke="#2e4369" stroke-linecap="round" stroke-linejoin="round" stroke-width="2"/>
    </g>
</svg>
